<svg xmlns="http://www.w3.org/2000/svg" xmlns:xlink="http://www.w3.org/1999/xlink" viewBox="0 0 90 90"><defs><style>.cls-1{fill:url(#linear-gradient);}.cls-2{fill:url(#linear-gradient-2);}</style><linearGradient id="linear-gradient" x1="91" y1="91" x2="-0.05" y2="-0.05" gradientUnits="userSpaceOnUse"><stop offset="0" stop-color="#29c182"/><stop offset="1" stop-color="#4beaa4"/></linearGradient><linearGradient id="linear-gradient-2" x1="89.64" y1="92.28" x2="-1.41" y2="1.23" xlink:href="#linear-gradient"/></defs><title>Asset 12_2</title><g id="Layer_2" data-name="Layer 2"><g id="Layer_1-2" data-name="Layer 1"><path class="cls-1" d="M45,0A45,45,0,1,0,90,45,45,45,0,0,0,45,0Zm0,72.64a25,25,0,0,1-2.5-49.88V20.33H36.27v-5H54.13v5H47.9v2.48a24.79,24.79,0,0,1,11.87,4.66l3.49-3.89,4,3.6L63.75,31.1A25,25,0,0,1,45,72.64Z"/><path class="cls-2" d="M45,28.21A19.43,19.43,0,1,0,58.74,33.9,19.42,19.42,0,0,0,45,28.21ZM42.33,53.06C40.48,51.68,35.64,43,34,40.3c3,.79,12.72,3,14.58,4.39C54.11,48.82,47.84,57.19,42.33,53.06Z"/></g></g></svg>