<svg xmlns="http://www.w3.org/2000/svg" xmlns:xlink="http://www.w3.org/1999/xlink" viewBox="0 0 90 90"><defs><style>.cls-1{fill:url(#linear-gradient);}.cls-2{fill:url(#linear-gradient-2);}</style><linearGradient id="linear-gradient" x1="38.15" y1="51.9" x2="52.2" y2="37.85" gradientUnits="userSpaceOnUse"><stop offset="0" stop-color="#ff9c51"/><stop offset="1" stop-color="#ffd46c"/></linearGradient><linearGradient id="linear-gradient-2" x1="13.18" y1="76.82" x2="76.82" y2="13.18" xlink:href="#linear-gradient"/></defs><title>Asset 13_2</title><g id="Layer_2" data-name="Layer 2"><g id="Layer_1-2" data-name="Layer 1"><path class="cls-1" d="M52.2,37.85a10,10,0,1,0,2.87,7A9.92,9.92,0,0,0,52.2,37.85Z"/><path class="cls-2" d="M45,0A45,45,0,1,0,90,45,45,45,0,0,0,45,0ZM57.87,29.68l3.94-3.95a1.82,1.82,0,0,1,2.58,2.58l-3.94,3.95a1.82,1.82,0,1,1-2.58-2.58Zm-14.56-10a1.87,1.87,0,1,1,3.73,0v5.52a1.87,1.87,0,0,1-3.73,0ZM26,25.73a1.83,1.83,0,0,1,2.58,0l4,3.95a1.82,1.82,0,1,1-2.58,2.58L26,28.31A1.83,1.83,0,0,1,26,25.73ZM18.08,44.87A1.9,1.9,0,0,1,19.94,43h5.52a1.87,1.87,0,1,1,0,3.73H19.94A1.85,1.85,0,0,1,18.08,44.87Zm14.41,15.2-4,3.95A1.82,1.82,0,0,1,26,61.44l3.95-3.95a1.82,1.82,0,1,1,2.58,2.58ZM47,70.11a1.87,1.87,0,0,1-3.73,0V64.59a1.87,1.87,0,0,1,3.73,0ZM45.18,58.5a13.58,13.58,0,0,1-9.61-23.23,13.38,13.38,0,0,1,9.61-4,13.65,13.65,0,0,1,9.6,4,13.38,13.38,0,0,1,4,9.6,13.67,13.67,0,0,1-4,9.61A13.36,13.36,0,0,1,45.18,58.5ZM64.32,64a1.83,1.83,0,0,1-2.58,0l-4-3.95a1.83,1.83,0,0,1,2.59-2.58l3.94,3.95A1.81,1.81,0,0,1,64.32,64Zm6.09-17.28H64.89a1.87,1.87,0,0,1,0-3.73h5.52a1.87,1.87,0,1,1,0,3.73Z"/></g></g></svg>