<svg xmlns="http://www.w3.org/2000/svg" xmlns:xlink="http://www.w3.org/1999/xlink" viewBox="0 0 90 90"><defs><style>.cls-1{fill:url(#linear-gradient);}</style><linearGradient id="linear-gradient" x1="91.56" y1="91.56" x2="3.89" y2="3.89" gradientUnits="userSpaceOnUse"><stop offset="0" stop-color="#0bbfbe"/><stop offset="0.48" stop-color="#0fc8ba"/><stop offset="0.99" stop-color="#15d8b4"/></linearGradient></defs><title>Asset 14_2</title><g id="Layer_2" data-name="Layer 2"><g id="Layer_1-2" data-name="Layer 1"><path class="cls-1" d="M45,0A45,45,0,1,0,90,45,45,45,0,0,0,45,0ZM14.36,68.86c-.69-2.77-.57-2.93,2.1-3H27.91c-4.79-6.78-9.23-13.1-13.78-19.53l2.64-1.78L29,61.79c1.84-2.54,3.67-4.92,5.32-7.42.24-.37-.17-1.46-.55-2-1.31-2-2.72-3.87-4.17-5.89l2.59-1.94,4.61,6.34L54.47,26l-2.26-1.3,7.65-3.55c-.33,2.77-.6,5.33-.91,8l-2.07-.93L30.37,65.75h12.8c-.88-1.27-1.53-2.29-2.24-3.26-2-2.74-2-2.72,0-5.53l3.67,4.89,25.27-35.7-1.72-1.62,7.28-3.39-.86,8.2-2.15-1.1L45.86,65.77h30L76,68.86Z"/></g></g></svg>