<svg xmlns="http://www.w3.org/2000/svg" xmlns:xlink="http://www.w3.org/1999/xlink" viewBox="0 0 89.67 89.67"><defs><style>.cls-1{fill:url(#linear-gradient);}.cls-2{fill:url(#linear-gradient-2);}</style><linearGradient id="linear-gradient" x1="-23.12" y1="12.63" x2="69.91" y2="105.66" gradientUnits="userSpaceOnUse"><stop offset="0" stop-color="#dc8ef4"/><stop offset="1" stop-color="#a463ea"/></linearGradient><linearGradient id="linear-gradient-2" x1="11.51" y1="-21.8" x2="104.54" y2="71.23" xlink:href="#linear-gradient"/></defs><title>Asset 25_2</title><g id="Layer_2" data-name="Layer 2"><g id="Layer_1-2" data-name="Layer 1"><path class="cls-1" d="M44,52.13,35.71,60.8a11.23,11.23,0,0,1,.69,3.89v.74a10.87,10.87,0,0,1-10.66,10.4,10.47,10.47,0,0,1-4.61-1.11l7.1-7.43A3.36,3.36,0,0,0,29,66a3.81,3.81,0,0,0-.81-3.86A3.5,3.5,0,0,0,25.71,61a3.26,3.26,0,0,0-1.23.25,3.33,3.33,0,0,0-1.3.83l-7.13,7.43a11.23,11.23,0,0,1,5-14.83A10.61,10.61,0,0,1,25,53.61h.73a10.8,10.8,0,0,1,3.72.73l8.22-8.59L9.35,17.45A44.82,44.82,0,0,0,72.22,80.32Z"/><path class="cls-2" d="M43.19,40l8.2-8.56a11.72,11.72,0,0,1-.63-4v-.77a10.93,10.93,0,0,1,10.68-10.4A10.38,10.38,0,0,1,66,17.39l-7.13,7.44a3.7,3.7,0,0,0-.81,1.31,3.82,3.82,0,0,0,.81,3.94,3.45,3.45,0,0,0,3.83.81A3.39,3.39,0,0,0,64,30l7.18-7.42a11.26,11.26,0,0,1-5.11,14.84,10.78,10.78,0,0,1-3.85,1.06h-.72a10.55,10.55,0,0,1-3.72-.71l-8.21,8.55L78.1,74.89A44.83,44.83,0,0,0,14.78,11.57Z"/></g></g></svg>