<svg xmlns="http://www.w3.org/2000/svg" xmlns:xlink="http://www.w3.org/1999/xlink" viewBox="0 0 90 90"><defs><style>.cls-1{fill:url(#linear-gradient);}.cls-2{fill:url(#linear-gradient-2);}.cls-3{fill:url(#linear-gradient-3);}.cls-4{fill:url(#linear-gradient-4);}.cls-5{fill:url(#linear-gradient-5);}</style><linearGradient id="linear-gradient" x1="-7.8" y1="-13.7" x2="99.42" y2="93.52" gradientUnits="userSpaceOnUse"><stop offset="0" stop-color="#ffb397"/><stop offset="0.21" stop-color="#feaa98"/><stop offset="0.57" stop-color="#fa909b"/><stop offset="0.99" stop-color="#f46aa0"/></linearGradient><linearGradient id="linear-gradient-2" x1="-9.31" y1="-9.31" x2="94.79" y2="94.79" xlink:href="#linear-gradient"/><linearGradient id="linear-gradient-3" x1="-4.06" y1="-18.73" x2="103.54" y2="88.87" xlink:href="#linear-gradient"/><linearGradient id="linear-gradient-4" x1="1.89" y1="-21.51" x2="105.81" y2="82.41" xlink:href="#linear-gradient"/><linearGradient id="linear-gradient-5" x1="-13.57" y1="-4.62" x2="90.6" y2="99.56" xlink:href="#linear-gradient"/></defs><title>Asset 17_2</title><g id="Layer_2" data-name="Layer 2"><g id="Layer_1-2" data-name="Layer 1"><path class="cls-1" d="M34.83,22.94V34.31a9.28,9.28,0,0,0,4.44,7.92,24.75,24.75,0,0,1,3.67-13.88C41.1,24.86,37.23,23.48,34.83,22.94Z"/><path class="cls-2" d="M45,0A45,45,0,1,0,90,45,45,45,0,0,0,45,0ZM58.65,54.19c0,.09-.36,2.29-1,4.78-1.22,4.86-2.37,6.37-3.12,7.08a7.27,7.27,0,0,1-5,2h-.2a7.21,7.21,0,0,1-3.27-.87V78H42.18V47.32A13.17,13.17,0,0,1,31,34.31V18.63l2,.12a20,20,0,0,1,4.11.79A16.84,16.84,0,0,1,40,15.72,30.46,30.46,0,0,1,42.9,13l1.21-1,1.22,1c.9.73,4.82,4,6.13,7.37a19.25,19.25,0,0,1,3.29-1.51l2.52-.8V34.31a13.17,13.17,0,0,1-11.22,13v7.06a23.15,23.15,0,0,1,5.66-1.69c2.52-.49,4.74-.72,4.84-.73L59,51.71Z"/><path class="cls-3" d="M53.4,34.31h0V23.7A21,21,0,0,0,49,26.93c-4.31,4.2-6.28,9.79-5.85,16.62.3,0,.61.05.92.05A9.3,9.3,0,0,0,53.4,34.31Z"/><path class="cls-4" d="M45.45,25.08c.35-.38.69-.73,1-1,.51-.49,1-.93,1.52-1.34a2.71,2.71,0,0,0,0-.29c0-1.14-1.84-3.46-3.9-5.36a19.33,19.33,0,0,0-3.4,4A13.81,13.81,0,0,1,45.45,25.08Z"/><path class="cls-5" d="M46.06,60.65a3.46,3.46,0,0,0,5.83,2.6c.79-.75,1.78-3.89,2.46-7.1-3.23.51-6.42,1.34-7.21,2.09A3.44,3.44,0,0,0,46.06,60.65Z"/></g></g></svg>