<svg id="Layer_1" data-name="Layer 1" xmlns="http://www.w3.org/2000/svg" xmlns:xlink="http://www.w3.org/1999/xlink" viewBox="0 0 801.2 824.58"><defs><style>.cls-1{fill:none;}.cls-2{fill:url(#linear-gradient);}.cls-3{clip-path:url(#clip-path);}.cls-4{fill:url(#linear-gradient-2);}.cls-5{clip-path:url(#clip-path-2);}.cls-6{fill:url(#linear-gradient-3);}.cls-7{fill:url(#linear-gradient-4);}.cls-8{clip-path:url(#clip-path-3);}.cls-9{fill:url(#linear-gradient-5);}</style><linearGradient id="linear-gradient" x1="-6.84" y1="291.63" x2="610.58" y2="291.63" gradientTransform="matrix(-1, 0, 0, 1, 736.34, -1.6)" gradientUnits="userSpaceOnUse"><stop offset="0" stop-color="#d5205a"/><stop offset="1" stop-color="#f69320"/></linearGradient><clipPath id="clip-path" transform="translate(51.19 2.15)"><path class="cls-1" d="M599.9,1.87A173.27,173.27,0,0,0,573.39,0h-.22C443.34,1.81,511,183.82,344.42,152.17,81,102.11-26.43,311.63,19.26,395.17,43.76,439.89,670.41,688,584,525.57c-64.73-121.64,55.6-163.66,107.71-233.15,36.61-48.83,52-96,51.45-137.76-1-80.91-61.84-141.24-143.27-152.79"/></clipPath><linearGradient id="linear-gradient-2" x1="-275.74" y1="-2507.41" x2="-270.82" y2="-2507.41" gradientTransform="translate(-295113.19 32495.94) rotate(90) scale(117.84)" xlink:href="#linear-gradient"/><clipPath id="clip-path-2" transform="translate(51.19 2.15)"><path class="cls-1" d="M584,525.57c-36.67-69.59-7.94-130.45,20.87-186.24,16.88-32.69,33.61-67.67,36.73-88.12,2.74-18,1.32-23.36.5-31.19-1.09-10.49-8.15-27-18.93-40.33-64.85-80.1-141.41-42.51-188.61,28.42C389.43,276,329.64,283,268,226.49c-79.33-72.67-162.9-41.4-205.82,2.23C-7.18,299.19-47,430.2,149.17,601"/></clipPath><linearGradient id="linear-gradient-3" x1="-341.58" y1="-2550.33" x2="-336.66" y2="-2550.33" gradientTransform="translate(-43770.02 -331159.61) rotate(180) scale(130.03)" gradientUnits="userSpaceOnUse"><stop offset="0" stop-color="#2d368f"/><stop offset="1" stop-color="#bc1f8b"/></linearGradient><linearGradient id="linear-gradient-4" x1="69.84" y1="488.53" x2="736.34" y2="488.53" gradientTransform="matrix(-1, 0, 0, 1, 736.34, -1.6)" gradientUnits="userSpaceOnUse"><stop offset="0" stop-color="#74cee1"/><stop offset="0.94" stop-color="#0e78be"/><stop offset="1" stop-color="#0b72ba"/></linearGradient><clipPath id="clip-path-3" transform="translate(51.19 2.15)"><path class="cls-1" d="M666.5,622.1c-.39-30.59-25.12-55.64-49.86-81-26.57-27.3-53.15-55-49.56-90.47,14.14-139.72-53.8-282.94-161.56-160.57-87.35,99.13-170.29,56.07-240.45-27.15C98.62,184.1,10.8,251.42,1.17,353.62A273.47,273.47,0,0,0,0,382.32v1.28c2.43,157.73,128.57,363,247.52,361.82h.63C275,745,301.41,734.05,326,709.68,466.67,570,610.35,743.42,657.69,655.13c6.32-11.78,8.95-22.7,8.81-33h0"/></clipPath><linearGradient id="linear-gradient-5" x1="68.29" y1="465.65" x2="738.89" y2="465.65" gradientTransform="matrix(-1, -0.01, -0.01, 1, 742.33, 3.66)" xlink:href="#linear-gradient-4"/></defs><title>blob-small-left</title><path class="cls-2" d="M599.9,1.87A173.27,173.27,0,0,0,573.39,0h-.22C443.34,1.81,511,183.82,344.42,152.17,81,102.11-26.43,311.63,19.26,395.17,43.76,439.89,670.41,688,584,525.57c-64.73-121.64,55.6-163.66,107.71-233.15,36.61-48.83,52-96,51.45-137.76-1-80.91-61.84-141.24-143.27-152.79" transform="translate(51.19 2.15)"/><g class="cls-3"><rect class="cls-4" x="-25.96" y="2.81" width="771.55" height="689.15" transform="translate(46.74 6.82) rotate(-0.74)"/></g><g class="cls-5"><rect class="cls-6" x="-46.61" y="102.78" width="719.57" height="715.04" transform="translate(45.27 6.23) rotate(-0.74)"/></g><path class="cls-7" d="M666.5,622.1c-.39-30.59-25.12-55.64-49.86-81-26.57-27.3-53.15-55-49.56-90.47,14.14-139.72-53.8-282.94-161.56-160.57-87.35,99.13-170.29,56.07-240.45-27.15C98.62,184.1,10.8,251.42,1.17,353.62A273.47,273.47,0,0,0,0,382.32v1.28c2.43,157.73,128.57,363,247.52,361.82h.63C275,745,301.41,734.05,326,709.68,466.67,570,610.35,743.42,657.69,655.13c6.32-11.78,8.95-22.7,8.81-33h0" transform="translate(51.19 2.15)"/><g class="cls-8"><rect class="cls-9" x="1.09" y="181.14" width="663.34" height="565.84" transform="translate(45.23 6.48) rotate(-0.74)"/></g></svg>